<?xml version="1.0" encoding="UTF-8" standalone="no"?>
<!-- Generator: Adobe Illustrator 22.0.1, SVG Export Plug-In . SVG Version: 6.00 Build 0)  -->

<svg
   xmlns:dc="http://purl.org/dc/elements/1.1/"
   xmlns:cc="http://creativecommons.org/ns#"
   xmlns:rdf="http://www.w3.org/1999/02/22-rdf-syntax-ns#"
   xmlns:svg="http://www.w3.org/2000/svg"
   xmlns="http://www.w3.org/2000/svg"
   xmlns:sodipodi="http://sodipodi.sourceforge.net/DTD/sodipodi-0.dtd"
   xmlns:inkscape="http://www.inkscape.org/namespaces/inkscape"
   version="1.1"
   id="Layer_1"
   x="0px"
   y="0px"
   viewBox="0 0 1400 1000"
   style="enable-background:new 0 0 1400 1000;"
   xml:space="preserve"
   sodipodi:docname="engineers.svg"
   inkscape:version="0.92.4 (f8dce91, 2019-08-02)"><metadata
   id="metadata325"><rdf:RDF><cc:Work
       rdf:about=""><dc:format>image/svg+xml</dc:format><dc:type
         rdf:resource="http://purl.org/dc/dcmitype/StillImage" /></cc:Work></rdf:RDF></metadata><defs
   id="defs323" /><sodipodi:namedview
   pagecolor="#ffffff"
   bordercolor="#666666"
   borderopacity="1"
   objecttolerance="10"
   gridtolerance="10"
   guidetolerance="10"
   inkscape:pageopacity="0"
   inkscape:pageshadow="2"
   inkscape:window-width="1360"
   inkscape:window-height="717"
   id="namedview321"
   showgrid="false"
   inkscape:zoom="0.236"
   inkscape:cx="700"
   inkscape:cy="500"
   inkscape:window-x="0"
   inkscape:window-y="0"
   inkscape:window-maximized="1"
   inkscape:current-layer="Layer_1" />
<style
   type="text/css"
   id="style2">
	.st0{fill:#E26144;}
	.st1{fill:#DCDDDF;}
	.st2{fill:#C2C2C4;}
	.st3{fill:#F8A200;}
	.st4{fill:#F77B00;}
	.st5{fill:#AFE1F2;}
	.st6{fill:#74CCF4;}
	.st7{fill:#CB553E;}
	.st8{fill:#BA3422;}
	.st9{fill:none;stroke:#444241;stroke-width:10;stroke-miterlimit:10;}
	.st10{fill:#EF8925;}
	.st11{opacity:0.46;fill:#FFFFFF;}
	.st12{font-family:'Roboto-Medium';}
	.st13{font-size:64.8629px;}
	.st14{letter-spacing:6;}
	.st15{fill:#E2AA6D;}
	.st16{fill:#FEE3BE;}
	.st17{fill:#FFFFFF;}
	.st18{fill:#F0F1F2;}
	.st19{fill:none;stroke:#444241;stroke-width:10;stroke-linecap:round;stroke-linejoin:round;stroke-miterlimit:10;}
	.st20{fill:#444241;}
	.st21{fill:none;}
	.st22{font-family:'Roboto-Light';}
	.st23{font-size:13.3993px;}
	.st24{letter-spacing:1;}
</style>
<g
   id="g318">
	<path
   class="st0"
   d="M190.5,103.3c3.4-5.9,1.4-13.4-4.5-16.7c-5.9-3.4-13.4-1.4-16.7,4.5c-0.8,1.4-1.3,2.8-1.5,4.3   c-0.5-1.6-1.4-3.1-2.5-4.4c-4.5-5-12.3-5.4-17.3-0.9c-5,4.5-5.4,12.3-0.9,17.3c1.1,1.2,2.3,2.1,3.6,2.7c-1.7,0-3.4,0.3-5,1.1   c-6.2,2.8-8.9,10-6.2,16.2c2.8,6.2,10,8.9,16.2,6.2c1.4-0.6,2.7-1.5,3.7-2.6c-0.5,1.6-0.7,3.3-0.5,5.1c0.7,6.7,6.8,11.6,13.5,10.9   c6.7-0.7,11.6-6.8,10.9-13.5c-0.2-1.6-0.6-3-1.3-4.3c1.3,1,2.9,1.7,4.7,2.1c6.6,1.4,13.1-2.8,14.5-9.5c1.4-6.6-2.8-13.1-9.5-14.5   c-1.5-0.3-3.1-0.3-4.5-0.1C188.5,106.1,189.6,104.8,190.5,103.3z"
   id="path4" />
	<polygon
   class="st1"
   points="258.3,198.9 166.3,198.9 182.2,261.3 242.4,261.3  "
   id="polygon6" />
	<polygon
   class="st2"
   points="230.1,198.9 214.2,261.3 242.4,261.3 258.3,198.9  "
   id="polygon8" />
	<rect
   x="205.1"
   y="298.1"
   class="st0"
   width="31.7"
   height="40.9"
   id="rect10" />
	<rect
   x="435.2"
   y="298.1"
   class="st0"
   width="31.7"
   height="40.9"
   id="rect12" />
	<path
   class="st3"
   d="M506.6,261.9H165.4c-9.9,0-18,8.1-18,18v0.1c0,9.9,8.1,18,18,18h341.2c9.9,0,18-8.1,18-18V280   C524.7,270,516.6,261.9,506.6,261.9z"
   id="path14" />
	<path
   class="st4"
   d="M506.6,261.9h-40.2c9.9,0,18,8.1,18,18v0.1c0,9.9-8.1,18-18,18h40.2c9.9,0,18-8.1,18-18V280   C524.7,270,516.6,261.9,506.6,261.9z"
   id="path16" />
	<path
   class="st5"
   d="M483.3,446.7v-55.3c0-17.8-14.6-32.4-32.4-32.4H344.4c-17.8,0-32.4,14.6-32.4,32.4v55.3   c0,17.8,14.6,32.4,32.4,32.4h72.9l61.3,20.7l-15-23.4C475.2,471.4,483.3,459.9,483.3,446.7z"
   id="path18" />
	<path
   class="st6"
   d="M483.3,446.7v-55.3c0-17.8-14.6-32.4-32.4-32.4h-16.2c17.8,0,32.4,14.6,32.4,32.4v55.3   c0,13.3-8.1,24.7-19.6,29.7l10.5,16.4l20.7,7l-15-23.4C475.2,471.4,483.3,459.9,483.3,446.7z"
   id="path20" />
	<path
   class="st7"
   d="M595.7,311.3c0,0-29.1-159.3,75.4-139c0.9,0.2,37.4-20.9,76.8-2.7c53.2,24.5,61.4,115.2,33.9,142.7   C754.2,339.7,595.7,311.3,595.7,311.3z"
   id="path22" />
	<path
   class="st8"
   d="M747.8,169.5c-32-14.7-62-3.7-72.7,1c6.1,1.1,12.4,3,18.9,6c53.2,24.5,61.4,115.2,33.9,142.7   c-1.9,1.9-4.5,3.6-7.7,5c28,0.2,52.2-2.7,61.5-12C809.3,284.7,801,194,747.8,169.5z"
   id="path24" />
	<path
   class="st9"
   d="M595.7,311.3c0,0-29.1-159.3,75.4-139c0.9,0.2,37.4-20.9,76.8-2.7c53.2,24.5,61.4,115.2,33.9,142.7   C754.2,339.7,595.7,311.3,595.7,311.3z"
   id="path26" />
	<g
   id="g46">
		<path
   class="st0"
   d="M1071.9,642.4H347.7v39.3c0,18.1,14.6,32.7,32.7,32.7h658.8c18.1,0,32.7-14.6,32.7-32.7V642.4z"
   id="path28" />
		<path
   class="st10"
   d="M370.2,681.7v-39.3h-22.4v39.3c0,18.1,14.6,32.7,32.7,32.7h22.4C384.8,714.4,370.2,699.8,370.2,681.7z"
   id="path30" />
		<path
   class="st7"
   d="M956.6,642.4v39.3c0,18.1-14.6,32.7-32.7,32.7h115.3c18.1,0,32.7-14.6,32.7-32.7v-39.3H956.6z"
   id="path32" />
		<path
   class="st9"
   d="M1071.9,642.4H347.7v39.3c0,18.1,14.6,32.7,32.7,32.7h658.8c18.1,0,32.7-14.6,32.7-32.7V642.4z"
   id="path34" />
		<g
   id="g44">
			<path
   class="st3"
   d="M1084.4,621.2H319.7c-11.2,0-20.4,9.2-20.4,20.4v0.6c0,11.2,9.2,20.4,20.4,20.4h764.7     c11.2,0,20.4-9.2,20.4-20.4v-0.6C1104.8,630.3,1095.6,621.2,1084.4,621.2z"
   id="path36" />
			<path
   class="st11"
   d="M314.8,642.1v-0.6c0-11.2,9.2-20.4,20.4-20.4h-15.5c-11.2,0-20.4,9.2-20.4,20.4v0.6     c0,11.2,9.2,20.4,20.4,20.4h15.5C324,662.5,314.8,653.3,314.8,642.1z"
   id="path38" />
			<path
   class="st4"
   d="M1084.4,621.2h-140c11.2,0,20.4,9.2,20.4,20.4v0.6c0,11.2-9.2,20.4-20.4,20.4h140c11.2,0,20.4-9.2,20.4-20.4     v-0.6C1104.8,630.3,1095.6,621.2,1084.4,621.2z"
   id="path40" />
			<path
   class="st9"
   d="M1084.4,621.2H319.7c-11.2,0-20.4,9.2-20.4,20.4v0.6c0,11.2,9.2,20.4,20.4,20.4h764.7     c11.2,0,20.4-9.2,20.4-20.4v-0.6C1104.8,630.3,1095.6,621.2,1084.4,621.2z"
   id="path42" />
		</g>
	</g>
	<text
   transform="translate(288.2681,819.3438)"
   class="st12 st13 st14"
   id="text48"
   style="font-size:64.86289978px;font-family:Roboto-Medium;letter-spacing:6" />


	<g
   id="g90">
		<path
   id="XMLID_4_"
   class="st6"
   d="M899.8,618.6L877.1,492c-16.6-18.3-82.4-42-140.6-57.8l-82.7,0.3    c-57.7,15.8-126.8,39.3-143.3,57.5l-22.7,126.6H899.8z" />
		<circle
   id="XMLID_2_"
   class="st15"
   cx="611.1"
   cy="307.5"
   r="18.5" />
		<circle
   id="XMLID_682_"
   class="st9"
   cx="611.1"
   cy="307.5"
   r="18.5" />
		<path
   class="st16"
   d="M773.4,276l-26.5-6.5c-17.4-4.3-34-11.3-49.1-20.7l-15.3-9.6c-33.8,32.2-69.6,36.8-69.6,36.8l-0.1,29.2    c0,44.4,36,107.2,80.4,107.2c44.4,0,80.4-62.8,80.4-107.2L773.4,276z"
   id="path53" />
		<circle
   id="XMLID_3_"
   class="st15"
   cx="776.5"
   cy="308.9"
   r="18.5" />
		<circle
   id="XMLID_683_"
   class="st9"
   cx="776.5"
   cy="308.9"
   r="18.5" />
		<path
   id="XMLID_690_"
   class="st9"
   d="M899.8,618.6L877.1,492c-16.6-18.3-82.4-42-140.6-57.8l-82.7,0.3    c-57.7,15.8-126.8,39.3-143.3,57.5l-22.7,126.6H899.8z" />
		<g
   id="XMLID_1_">
			<path
   class="st16"
   d="M738.4,389.6V437c0,0-8.1,30.7-46,38.3C652.8,465,646.7,437,646.7,437v-48.4c13.1,14.2,29.1,23.7,46.3,23.7     C709.9,412.3,725.5,403.3,738.4,389.6z"
   id="path58" />
		</g>
		<g
   id="g65">
			<path
   class="st15"
   d="M714.3,257.8c-5.7-2.7-11.2-5.7-16.6-9.1l-15.3-9.6c-1.1,1-2.2,2.1-3.3,3C690.2,248.7,702,254,714.3,257.8z     "
   id="path61" />
			<path
   class="st15"
   d="M773.4,276l-22.4-5.5l0,25.9c0,44.4-36,107.2-80.4,107.2c-2.4,0-4.8-0.2-7.1-0.6c9.1,5.9,19.1,9.3,29.5,9.3     c44.4,0,80.4-62.8,80.4-107.2L773.4,276z"
   id="path63" />
		</g>
		<path
   class="st15"
   d="M738.4,390v14.2c-12.9,18.6-28.5,30.9-45.4,30.9c-17.3,0-33.2-12.9-46.3-32.3v-14.2    c13.1,19.4,29.1,17.2,46.3,17.2C709.9,405.8,725.5,408.6,738.4,390z"
   id="path67" />
		<path
   class="st9"
   d="M773.4,276l-26.5-6.5c-17.4-4.3-34-11.3-49.1-20.7l-15.3-9.6c-33.8,32.2-69.6,36.8-69.6,36.8l-0.1,29.2    c0,44.4,36,107.2,80.4,107.2c44.4,0,80.4-62.8,80.4-107.2L773.4,276z"
   id="path69" />
		<g
   id="XMLID_685_">
			<path
   class="st9"
   d="M738.4,389.6V437c0,0-8.1,30.7-46,38.3C652.8,465,646.7,437,646.7,437v-48.4c13.1,14.2,29.1,23.7,46.3,23.7     C709.9,412.3,725.5,403.3,738.4,389.6z"
   id="path71" />
		</g>
		<g
   id="g88">
			<g
   id="g78">
				<path
   class="st17"
   d="M668.6,299.3h-22.8c-7.9,0-14.3,6.4-14.3,14.3v13.1c0,7.9,6.4,14.3,14.3,14.3h22.8      c7.9,0,14.3-6.4,14.3-14.3v-13.1C683,305.7,676.5,299.3,668.6,299.3z"
   id="path74" />
				<path
   class="st9"
   d="M668.6,299.3h-22.8c-7.9,0-14.3,6.4-14.3,14.3v13.1c0,7.9,6.4,14.3,14.3,14.3h22.8      c7.9,0,14.3-6.4,14.3-14.3v-13.1C683,305.7,676.5,299.3,668.6,299.3z"
   id="path76" />
			</g>
			<g
   id="g84">
				<path
   class="st17"
   d="M741.1,299.3h-22.8c-7.9,0-14.3,6.4-14.3,14.3v13.1c0,7.9,6.4,14.3,14.3,14.3h22.8      c7.9,0,14.3-6.4,14.3-14.3v-13.1C755.5,305.7,749.1,299.3,741.1,299.3z"
   id="path80" />
				<path
   class="st9"
   d="M741.1,299.3h-22.8c-7.9,0-14.3,6.4-14.3,14.3v13.1c0,7.9,6.4,14.3,14.3,14.3h22.8      c7.9,0,14.3-6.4,14.3-14.3v-13.1C755.5,305.7,749.1,299.3,741.1,299.3z"
   id="path82" />
			</g>
			<line
   class="st9"
   x1="682.2"
   y1="316.1"
   x2="703.3"
   y2="316.1"
   id="line86" />
		</g>
	</g>
	<g
   id="g104">
		<path
   class="st1"
   d="M827.1,435.3h-255c-10.2,0-18.4,8.3-18.4,18.4v146.3c0,9.8,8,17.8,17.8,17.8h256.4c9.8,0,17.8-8,17.8-17.8    V453.8C845.6,443.6,837.3,435.3,827.1,435.3z"
   id="path92" />
		<path
   class="st18"
   d="M570.5,600.1V453.8c0-10.2,8.3-18.4,18.4-18.4h-16.8c-10.2,0-18.4,8.3-18.4,18.4v146.3    c0,9.8,8,17.8,17.8,17.8h16.8C578.4,617.9,570.5,609.9,570.5,600.1z"
   id="path94" />
		<path
   class="st2"
   d="M827.1,435.3h-43c10.2,0,18.4,8.3,18.4,18.4v146.3c0,9.8-8,17.8-17.8,17.8h43c9.8,0,17.8-8,17.8-17.8V453.8    C845.6,443.6,837.3,435.3,827.1,435.3z"
   id="path96" />
		<path
   class="st9"
   d="M827.1,435.3h-255c-10.2,0-18.4,8.3-18.4,18.4v146.3c0,9.8,8,17.8,17.8,17.8h256.4c9.8,0,17.8-8,17.8-17.8    V453.8C845.6,443.6,837.3,435.3,827.1,435.3z"
   id="path98" />
		<g
   id="g102">
			<path
   class="st17"
   d="M722.4,500.6c-3.2-2.2-7-3.6-11.1-3.6c-5.2,0-10,2.1-13.5,5.6l0,0.1v-0.1c-3.5-3.5-8.3-5.6-13.5-5.6     c-4.1,0-7.9,1.3-11.1,3.6c-6.6,4.7-9.7,13.1-8.2,21.3c1.7,9.2,8.3,31,32.8,33.9v-0.1l0,0.1c24.4-2.9,31.1-24.7,32.8-33.9     C732.1,513.7,729,505.2,722.4,500.6z"
   id="path100" />
		</g>
	</g>
	<path
   class="st19"
   d="M679.2,373.5c4.1,1.4,9.9,2.3,16.4,2.3c5.8,0,11.1-0.7,15.1-1.9"
   id="path106" />
	<g
   id="g126">
		<circle
   class="st3"
   cx="1039.7"
   cy="209.6"
   r="100.1"
   id="circle108" />
		
			<ellipse
   transform="matrix(0.7071 -0.7071 0.7071 0.7071 156.3114 796.5606)"
   class="st17"
   cx="1039.7"
   cy="209.6"
   rx="71.4"
   ry="71.4"
   id="ellipse110" />
		<path
   class="st1"
   d="M1039.7,138.2c-3.1,0-6.1,0.2-9.1,0.6c35.2,4.5,62.4,34.5,62.4,70.8s-27.2,66.4-62.4,70.8    c3,0.4,6,0.6,9.1,0.6c39.5,0,71.4-32,71.4-71.4S1079.1,138.2,1039.7,138.2z"
   id="path112" />
		<circle
   class="st9"
   cx="1039.7"
   cy="209.6"
   r="100.1"
   id="circle114" />
		<circle
   class="st9"
   cx="1039.7"
   cy="209.6"
   r="73.1"
   id="circle116" />
		<circle
   class="st3"
   cx="1040.9"
   cy="211.2"
   r="12"
   id="circle118" />
		<circle
   class="st9"
   cx="1040.9"
   cy="211.2"
   r="12"
   id="circle120" />
		<line
   class="st19"
   x1="1040.9"
   y1="198.5"
   x2="1040.9"
   y2="157.5"
   id="line122" />
		<line
   class="st19"
   x1="1011.9"
   y1="195.5"
   x2="1030.3"
   y2="205.8"
   id="line124" />
	</g>
	<path
   class="st19"
   d="M506.6,261.9H165.4c-9.9,0-18,8.1-18,18v0.1c0,9.9,8.1,18,18,18h341.2c9.9,0,18-8.1,18-18V280   C524.7,270,516.6,261.9,506.6,261.9z"
   id="path128" />
	<path
   class="st19"
   d="M483.3,446.7v-55.3c0-17.8-14.6-32.4-32.4-32.4H344.4c-17.8,0-32.4,14.6-32.4,32.4v55.3   c0,17.8,14.6,32.4,32.4,32.4h72.9l61.3,20.7l-15-23.4C475.2,471.4,483.3,459.9,483.3,446.7z"
   id="path130" />
	<g
   id="g138">
		<path
   class="st20"
   d="M369.1,437.9c-0.8,0-1.5-0.2-2.2-0.7l-20.8-16.3c-0.9-0.7-1.4-1.7-1.4-2.8s0.5-2.1,1.4-2.8l20.8-16.3    c1.5-1.2,3.8-0.9,4.9,0.6c1.2,1.5,0.9,3.8-0.6,4.9L354,418.1l17.3,13.5c1.5,1.2,1.8,3.4,0.6,4.9    C371.2,437.5,370.1,437.9,369.1,437.9z"
   id="path132" />
		<path
   class="st20"
   d="M416.8,437.9c-1,0-2.1-0.5-2.8-1.4c-1.2-1.5-0.9-3.8,0.6-4.9l17.3-13.5l-17.3-13.5c-1.5-1.2-1.8-3.4-0.6-4.9    c1.2-1.5,3.4-1.8,4.9-0.6l20.8,16.3c0.9,0.7,1.4,1.7,1.4,2.8s-0.5,2.1-1.4,2.8l-20.8,16.3C418.3,437.7,417.5,437.9,416.8,437.9z"
   id="path134" />
		<path
   class="st20"
   d="M381.3,447.1c-0.5,0-1-0.1-1.5-0.3c-1.8-0.8-2.5-2.9-1.7-4.7l22.6-47.8c0.8-1.8,2.9-2.5,4.7-1.7    c1.8,0.8,2.5,2.9,1.7,4.7l-22.6,47.8C383.9,446.4,382.7,447.1,381.3,447.1z"
   id="path136" />
	</g>
	<path
   class="st5"
   d="M913.3,501.9v-55.3c0-17.8,14.6-32.4,32.4-32.4h106.4c17.8,0,32.4,14.6,32.4,32.4v55.3   c0,17.8-14.6,32.4-32.4,32.4h-72.9L917.9,555l15-23.4C921.4,526.6,913.3,515.2,913.3,501.9z"
   id="path140" />
	<path
   class="st6"
   d="M913.3,501.9v-55.3c0-17.8,14.6-32.4,32.4-32.4h16.2c-17.8,0-32.4,14.6-32.4,32.4v55.3   c0,13.3,8.1,24.7,19.6,29.7L938.6,548l-20.7,7l15-23.4C921.4,526.6,913.3,515.2,913.3,501.9z"
   id="path142" />
	<path
   class="st19"
   d="M913.3,501.9v-55.3c0-17.8,14.6-32.4,32.4-32.4h106.4c17.8,0,32.4,14.6,32.4,32.4v55.3   c0,17.8-14.6,32.4-32.4,32.4h-72.9L917.9,555l15-23.4C921.4,526.6,913.3,515.2,913.3,501.9z"
   id="path144" />
	<path
   class="st17"
   d="M997.2,437.8h-31.6c-2.8,0-5.2,2.3-5.2,5.2v2.6c0,2.8,2.3,5.2,5.2,5.2h31.6c2.8,0,5.2-2.3,5.2-5.2V443   C1002.4,440.1,1000.1,437.8,997.2,437.8z"
   id="path146" />
	<path
   class="st17"
   d="M1049,458.9h-83.4c-2.8,0-5.2,2.3-5.2,5.2v2.6c0,2.8,2.3,5.2,5.2,5.2h83.4c2.8,0,5.2-2.3,5.2-5.2v-2.6   C1054.2,461.3,1051.8,458.9,1049,458.9z"
   id="path148" />
	<path
   class="st17"
   d="M1026.1,479.4h-60.5c-2.8,0-5.2,2.3-5.2,5.2v2.6c0,2.8,2.3,5.2,5.2,5.2h60.5c2.8,0,5.2-2.3,5.2-5.2v-2.6   C1031.3,481.7,1028.9,479.4,1026.1,479.4z"
   id="path150" />
	<path
   class="st17"
   d="M997.8,498.8h-32.2c-2.8,0-5.2,2.3-5.2,5.2v2.6c0,2.8,2.3,5.2,5.2,5.2h32.2c2.8,0,5.2-2.3,5.2-5.2V504   C1002.9,501.2,1000.6,498.8,997.8,498.8z"
   id="path152" />
	<g
   id="g162">
		<line
   class="st19"
   x1="1132.2"
   y1="351.6"
   x2="1132.2"
   y2="369.3"
   id="line154" />
		<line
   class="st19"
   x1="1102.9"
   y1="380.6"
   x2="1120.6"
   y2="380.6"
   id="line156" />
		<line
   class="st19"
   x1="1131.9"
   y1="409.9"
   x2="1131.9"
   y2="392.2"
   id="line158" />
		<line
   class="st19"
   x1="1161.2"
   y1="380.9"
   x2="1143.5"
   y2="380.9"
   id="line160" />
	</g>
	<g
   id="g172">
		<line
   class="st19"
   x1="307.7"
   y1="517.8"
   x2="307.7"
   y2="535.6"
   id="line164" />
		<line
   class="st19"
   x1="278.4"
   y1="546.8"
   x2="296.1"
   y2="546.8"
   id="line166" />
		<line
   class="st19"
   x1="307.3"
   y1="576.1"
   x2="307.3"
   y2="558.4"
   id="line168" />
		<line
   class="st19"
   x1="336.6"
   y1="547.1"
   x2="318.9"
   y2="547.1"
   id="line170" />
	</g>
	<g
   id="g182">
		<line
   class="st19"
   x1="844"
   y1="137.7"
   x2="844"
   y2="154.2"
   id="line174" />
		<line
   class="st19"
   x1="816.7"
   y1="164.7"
   x2="833.2"
   y2="164.7"
   id="line176" />
		<line
   class="st19"
   x1="843.7"
   y1="192"
   x2="843.7"
   y2="175.5"
   id="line178" />
		<line
   class="st19"
   x1="871"
   y1="165"
   x2="854.5"
   y2="165"
   id="line180" />
	</g>
	<circle
   class="st19"
   cx="834.3"
   cy="391.5"
   r="10"
   id="circle184" />
	<circle
   class="st19"
   cx="427.9"
   cy="548.7"
   r="10"
   id="circle186" />
	<g
   id="g206">
		<g
   id="g192">
			<line
   class="st19"
   x1="863.5"
   y1="271.5"
   x2="863.5"
   y2="274.7"
   id="line188" />
			<line
   class="st19"
   x1="863.5"
   y1="311.4"
   x2="863.5"
   y2="314.6"
   id="line190" />
		</g>
		<g
   id="g198">
			<line
   class="st19"
   x1="844.8"
   y1="282.3"
   x2="847.6"
   y2="283.9"
   id="line194" />
			<line
   class="st19"
   x1="879.4"
   y1="302.2"
   x2="882.2"
   y2="303.8"
   id="line196" />
		</g>
		<g
   id="g204">
			<line
   class="st19"
   x1="844.8"
   y1="303.8"
   x2="847.6"
   y2="302.2"
   id="line200" />
			<line
   class="st19"
   x1="879.4"
   y1="283.9"
   x2="882.2"
   y2="282.3"
   id="line202" />
		</g>
	</g>
	<g
   id="g226">
		<g
   id="g212">
			<line
   class="st19"
   x1="1182.4"
   y1="448.8"
   x2="1182.4"
   y2="452"
   id="line208" />
			<line
   class="st19"
   x1="1182.4"
   y1="488.7"
   x2="1182.4"
   y2="491.9"
   id="line210" />
		</g>
		<g
   id="g218">
			<line
   class="st19"
   x1="1163.7"
   y1="459.6"
   x2="1166.5"
   y2="461.2"
   id="line214" />
			<line
   class="st19"
   x1="1198.3"
   y1="479.5"
   x2="1201"
   y2="481.1"
   id="line216" />
		</g>
		<g
   id="g224">
			<line
   class="st19"
   x1="1163.7"
   y1="481.1"
   x2="1166.5"
   y2="479.5"
   id="line220" />
			<line
   class="st19"
   x1="1198.3"
   y1="461.2"
   x2="1201"
   y2="459.6"
   id="line222" />
		</g>
	</g>
	<g
   id="g246">
		<g
   id="g232">
			<line
   class="st19"
   x1="197.4"
   y1="434"
   x2="197.4"
   y2="437.2"
   id="line228" />
			<line
   class="st19"
   x1="197.4"
   y1="473.9"
   x2="197.4"
   y2="477.1"
   id="line230" />
		</g>
		<g
   id="g238">
			<line
   class="st19"
   x1="178.8"
   y1="444.8"
   x2="181.5"
   y2="446.4"
   id="line234" />
			<line
   class="st19"
   x1="213.3"
   y1="464.7"
   x2="216.1"
   y2="466.3"
   id="line236" />
		</g>
		<g
   id="g244">
			<line
   class="st19"
   x1="178.8"
   y1="466.3"
   x2="181.5"
   y2="464.7"
   id="line240" />
			<line
   class="st19"
   x1="213.3"
   y1="446.4"
   x2="216.1"
   y2="444.8"
   id="line242" />
		</g>
	</g>
	<g
   id="g266">
		<g
   id="g252">
			<line
   class="st19"
   x1="529.8"
   y1="142.3"
   x2="529.8"
   y2="145.8"
   id="line248" />
			<line
   class="st19"
   x1="529.8"
   y1="186.4"
   x2="529.8"
   y2="189.9"
   id="line250" />
		</g>
		<g
   id="g258">
			<line
   class="st19"
   x1="509.1"
   y1="154.2"
   x2="512.2"
   y2="155.9"
   id="line254" />
			<line
   class="st19"
   x1="547.3"
   y1="176.2"
   x2="550.4"
   y2="178"
   id="line256" />
		</g>
		<g
   id="g264">
			<line
   class="st19"
   x1="509.1"
   y1="178"
   x2="512.2"
   y2="176.2"
   id="line260" />
			<line
   class="st19"
   x1="547.3"
   y1="155.9"
   x2="550.4"
   y2="154.2"
   id="line262" />
		</g>
	</g>
	<rect
   x="205.1"
   y="298.1"
   class="st19"
   width="31.7"
   height="40.9"
   id="rect268" />
	<rect
   x="435.2"
   y="298.1"
   class="st19"
   width="31.7"
   height="40.9"
   id="rect270" />
	<polygon
   class="st19"
   points="258.3,198.9 166.3,198.9 182.2,261.3 242.4,261.3  "
   id="polygon272" />
	<rect
   x="311.2"
   y="136.4"
   class="st0"
   width="52"
   height="122.5"
   id="rect274" />
	<rect
   x="345"
   y="136.4"
   class="st8"
   width="18.3"
   height="122.5"
   id="rect276" />
	<rect
   x="363.8"
   y="168.9"
   class="st3"
   width="52"
   height="90"
   id="rect278" />
	<rect
   x="394.1"
   y="168.9"
   class="st4"
   width="21.7"
   height="90"
   id="rect280" />
	<rect
   x="416.9"
   y="143.6"
   class="st5"
   width="52"
   height="115.2"
   id="rect282" />
	<rect
   x="450.7"
   y="143.6"
   class="st6"
   width="18.2"
   height="115.2"
   id="rect284" />
	<rect
   x="311.2"
   y="136.4"
   class="st19"
   width="52"
   height="122.5"
   id="rect286" />
	<rect
   x="363.8"
   y="168.9"
   class="st19"
   width="52"
   height="90"
   id="rect288" />
	<rect
   x="416.9"
   y="143.6"
   class="st19"
   width="52"
   height="115.2"
   id="rect290" />
	<rect
   x="409.3"
   y="850.8"
   class="st21"
   width="578.8"
   height="82.2"
   id="rect292" />
	<text
   transform="translate(424.6885,860.8037)"
   id="text302"><tspan
     x="0"
     y="0"
     class="st22 st23 st24"
     id="tspan294"
     style="font-size:13.39929962px;font-family:Roboto-Light;letter-spacing:1" /></text>


	<path
   class="st19"
   d="M210.2,198.5l0.3-7.7c1-23.4-9.3-45.8-27.8-60.1l0,0"
   id="path304" />
	<path
   class="st19"
   d="M209.7,169.3c4.7-8.8,11.3-16.6,19.4-22.9l0,0"
   id="path306" />
	<path
   class="st19"
   d="M190.5,103.3c3.4-5.9,1.4-13.4-4.5-16.7c-5.9-3.4-13.4-1.4-16.7,4.5c-0.8,1.4-1.3,2.8-1.5,4.3   c-0.5-1.6-1.4-3.1-2.5-4.4c-4.5-5-12.3-5.4-17.3-0.9c-5,4.5-5.4,12.3-0.9,17.3c1.1,1.2,2.3,2.1,3.6,2.7c-1.7,0-3.4,0.3-5,1.1   c-6.2,2.8-8.9,10-6.2,16.2c2.8,6.2,10,8.9,16.2,6.2c1.4-0.6,2.7-1.5,3.7-2.6c-0.5,1.6-0.7,3.3-0.5,5.1c0.7,6.7,6.8,11.6,13.5,10.9   c6.7-0.7,11.6-6.8,10.9-13.5c-0.2-1.6-0.6-3-1.3-4.3c1.3,1,2.9,1.7,4.7,2.1c6.6,1.4,13.1-2.8,14.5-9.5c1.4-6.6-2.8-13.1-9.5-14.5   c-1.5-0.3-3.1-0.3-4.5-0.1C188.5,106.1,189.6,104.8,190.5,103.3z"
   id="path308" />
	<circle
   class="st17"
   cx="169.5"
   cy="114.8"
   r="6.5"
   id="circle310" />
	<path
   class="st0"
   d="M271.1,135.6c5.5-3.2,7.4-10.3,4.2-15.8c-3.2-5.5-10.3-7.4-15.8-4.2c-1.3,0.7-2.4,1.7-3.2,2.8   c0.3-1.5,0.4-3.2,0-4.8c-1.3-6.3-7.5-10.3-13.8-8.9c-6.3,1.3-10.3,7.5-8.9,13.8c0.3,1.5,0.9,2.8,1.7,4c-1.4-0.8-2.9-1.3-4.6-1.5   c-6.4-0.7-12.1,4-12.7,10.3c-0.7,6.4,4,12.1,10.3,12.7c1.5,0.2,2.9,0,4.3-0.4c-1.2,1.1-2.2,2.4-2.8,3.9c-2.6,5.9,0,12.7,5.9,15.3   c5.9,2.6,12.7,0,15.3-5.9c0.6-1.4,0.9-2.8,1-4.2c0.6,1.4,1.6,2.8,2.8,3.9c4.8,4.3,12.1,3.9,16.4-0.9c4.3-4.8,3.9-12.1-0.9-16.4   c-1.1-1-2.4-1.7-3.7-2.2C268,137,269.6,136.5,271.1,135.6z"
   id="path312" />
	<path
   class="st19"
   d="M271.1,135.6c5.5-3.2,7.4-10.3,4.2-15.8c-3.2-5.5-10.3-7.4-15.8-4.2c-1.3,0.7-2.4,1.7-3.2,2.8   c0.3-1.5,0.4-3.2,0-4.8c-1.3-6.3-7.5-10.3-13.8-8.9c-6.3,1.3-10.3,7.5-8.9,13.8c0.3,1.5,0.9,2.8,1.7,4c-1.4-0.8-2.9-1.3-4.6-1.5   c-6.4-0.7-12.1,4-12.7,10.3c-0.7,6.4,4,12.1,10.3,12.7c1.5,0.2,2.9,0,4.3-0.4c-1.2,1.1-2.2,2.4-2.8,3.9c-2.6,5.9,0,12.7,5.9,15.3   c5.9,2.6,12.7,0,15.3-5.9c0.6-1.4,0.9-2.8,1-4.2c0.6,1.4,1.6,2.8,2.8,3.9c4.8,4.3,12.1,3.9,16.4-0.9c4.3-4.8,3.9-12.1-0.9-16.4   c-1.1-1-2.4-1.7-3.7-2.2C268,137,269.6,136.5,271.1,135.6z"
   id="path314" />
	<circle
   class="st17"
   cx="248.4"
   cy="135.1"
   r="6.2"
   id="circle316" />
</g>
</svg>